<?xml version="1.0" encoding="UTF-8" standalone="no"?>
<!-- Created with Inkscape (http://www.inkscape.org/) -->

<svg
   version="1.1"
   id="svg2"
   xml:space="preserve"
   width="463.89334"
   height="47.373333"
   viewBox="0 0 463.89334 47.373333"
   sodipodi:docname="DemocracyGPS-logo-forWeb.eps"
   xmlns:inkscape="http://www.inkscape.org/namespaces/inkscape"
   xmlns:sodipodi="http://sodipodi.sourceforge.net/DTD/sodipodi-0.dtd"
   xmlns="http://www.w3.org/2000/svg"
   xmlns:svg="http://www.w3.org/2000/svg"><defs
     id="defs6" /><sodipodi:namedview
     id="namedview4"
     pagecolor="#ffffff"
     bordercolor="#666666"
     borderopacity="1.0"
     inkscape:pageshadow="2"
     inkscape:pageopacity="0.0"
     inkscape:pagecheckerboard="0" /><g
     id="g8"
     inkscape:groupmode="layer"
     inkscape:label="ink_ext_XXXXXX"
     transform="matrix(1.3333333,0,0,-1.3333333,0,47.373333)"><g
       id="g10"
       transform="scale(0.1)"><path
         d="m 133.957,130.473 c 8.09,10.847 12.856,24.531 14.301,41.015 l 1.695,19.375 c 1.539,17.582 -0.699,31.332 -6.699,41.227 -6.008,9.89 -16.016,14.84 -30.031,14.84 -15.3949,0 -26.7464,-5.711 -34.0628,-17.106 -7.3243,-11.414 -12,-28.801 -14.0469,-52.152 -2.0156,-23.086 -0.4258,-39.434 4.7812,-49.055 5.1993,-9.621 15.6407,-14.433 31.3045,-14.433 13.739,0 24.656,5.429 32.758,16.289 z M 18.1211,102.238 C 3.66797,119.273 -2.13672,144.008 0.699219,176.441 3.80078,211.891 14.0156,239.09 31.3398,258.063 c 17.3243,18.957 40.961,28.441 70.9182,28.441 13.461,0 24.445,-1.652 32.957,-4.953 8.508,-3.293 16.535,-8.93 24.078,-16.895 l 2.777,31.739 c 0.481,5.496 -0.332,9.617 -2.422,12.363 -2.097,2.746 -6.023,4.129 -11.8,4.129 h -6.184 l 3.719,42.461 h 81.621 L 208,138.102 c -0.531,-6.055 0.137,-10.176 2.008,-12.375 1.867,-2.196 5.547,-3.289 11.047,-3.289 h 4.949 l -3.496,-39.9927 h -64.313 l -0.992,26.3867 c -10.027,-10.9961 -20.98,-19.1015 -32.836,-24.3242 -11.859,-5.2187 -26.1834,-7.832 -42.9412,-7.832 -27.7578,0 -48.8594,8.5156 -63.3047,25.5622"
         style="fill:#317a22;fill-opacity:1;fill-rule:nonzero;stroke:none"
         id="path12" /><path
         d="m 412.32,202.406 c 1.25,14.289 -0.965,25.074 -6.648,32.364 -5.692,7.277 -14.715,10.918 -27.078,10.918 -13.192,0 -23.477,-3.708 -30.86,-11.129 -7.386,-7.414 -11.687,-18.137 -12.914,-32.153 z M 290.422,102.438 c -17.852,17.449 -25.289,43.218 -22.305,77.292 3.125,35.727 14.594,62.458 34.43,80.18 19.82,17.727 46.644,26.594 80.441,26.594 32.981,0 57.266,-9.004 72.871,-27.004 15.598,-18.004 22.082,-42.117 19.434,-72.348 l -1.727,-19.785 H 331.754 c -1.563,-17.871 1.019,-30.781 7.738,-38.75 6.731,-7.969 18.055,-11.953 33.996,-11.953 13.461,0 25.051,2.063 34.758,6.184 l 1.336,15.254 h 54.414 l -2.961,-33.813 c -11.258,-9.3437 -24.308,-16.3437 -39.144,-21.0234 -14.832,-4.6679 -32.422,-7 -52.758,-7 -34.629,0 -60.863,8.7188 -78.711,26.1724"
         style="fill:#317a22;fill-opacity:1;fill-rule:nonzero;stroke:none"
         id="path14" /><path
         d="m 517.215,124.496 h 7.832 c 10.988,0 16.945,5.215 17.859,15.664 l 7.211,82.445 c 0.914,10.446 -3.984,15.665 -14.699,15.665 h -8.25 l 3.68,42.046 h 63.484 l 0.84,-28.031 c 18.207,22.809 43.535,34.219 75.969,34.219 22.527,0 39.445,-9.215 50.761,-27.621 7.981,9.617 17.18,16.625 27.602,21.023 10.41,4.395 22.215,6.598 35.406,6.598 23.914,0 40.715,-5.774 50.43,-17.316 9.707,-11.543 13.555,-28.856 11.531,-51.942 l -6.777,-77.496 c -0.891,-10.176 3.883,-15.254 14.332,-15.254 h 9.476 l -3.679,-42.0507 h -89.45 l 11.793,134.8007 c 0.911,10.445 -0.503,17.859 -4.242,22.262 -3.734,4.394 -10.004,6.594 -18.797,6.594 -9.625,0 -17.05,-2.469 -22.289,-7.414 -5.242,-4.95 -8.32,-12.649 -9.234,-23.086 l -6.637,-75.852 c -0.457,-5.223 0.301,-9.07 2.285,-11.555 1.985,-2.468 5.723,-3.699 11.215,-3.699 h 9.488 L 740.676,82.4453 H 656.172 L 667.93,216.836 c 0.89,10.16 -0.528,17.582 -4.242,22.254 -3.711,4.676 -9.829,7.012 -18.348,7.012 -9.891,0 -17.531,-2.539 -22.93,-7.625 -5.39,-5.09 -8.566,-13.129 -9.527,-24.114 l -6.528,-74.613 c -0.46,-5.223 0.305,-9.07 2.29,-11.555 1.976,-2.468 5.582,-3.699 10.804,-3.699 h 8.653 L 624.426,82.4453 H 513.535 l 3.68,42.0507"
         style="fill:#317a22;fill-opacity:1;fill-rule:nonzero;stroke:none"
         id="path16" /><path
         d="m 1041.13,133.559 c 7.47,9.902 12.14,25.703 14.04,47.414 1.95,22.257 0.06,38.34 -5.67,48.23 -5.73,9.887 -16.02,14.84 -30.86,14.84 -14.84,0 -25.925,-4.953 -33.242,-14.84 -7.332,-9.89 -11.964,-25.973 -13.914,-48.23 -1.898,-21.711 -0.05,-37.512 5.543,-47.414 5.59,-9.895 15.805,-14.832 30.653,-14.832 14.84,0 25.99,4.937 33.45,14.832 z M 927.59,103.266 c -16.844,18 -23.781,43.906 -20.824,77.707 2.98,34.07 14.336,60.183 34.058,78.324 19.731,18.141 46.906,27.207 81.536,27.207 34.62,0 60.21,-9.066 76.76,-27.207 16.56,-18.141 23.34,-44.254 20.36,-78.324 -2.96,-33.801 -14.43,-59.707 -34.42,-77.707 -19.99,-18.0082 -47.02,-27.0004 -81.1,-27.0004 -34.077,0 -59.538,8.9922 -76.37,27.0004"
         style="fill:#317a22;fill-opacity:1;fill-rule:nonzero;stroke:none"
         id="path18" /><path
         d="m 1207.39,88.0117 c -16.08,7.8321 -28.25,19.4413 -36.52,34.8363 -8.28,15.39 -11.45,34.07 -9.53,56.062 3.06,34.899 15.29,61.559 36.68,79.973 21.4,18.406 49.41,27.621 84.04,27.621 18.96,0 34.65,-2.133 47.06,-6.387 12.4,-4.269 24.37,-11.207 35.9,-20.82 l -4.12,-46.996 h -54.41 l 2.02,23.086 c -4.16,2.742 -8.53,4.668 -13.1,5.769 -4.58,1.094 -10.44,1.653 -17.59,1.653 -14.01,0 -25.75,-5.36 -35.21,-16.082 -9.45,-10.715 -15.11,-26.661 -16.96,-47.817 -1.75,-20.066 2.1,-34.902 11.56,-44.519 9.47,-9.629 23.68,-14.426 42.64,-14.426 21.45,0 39.9,5.215 55.38,15.664 l 18.07,-33.809 c -13.77,-9.6208 -27.05,-16.2809 -39.88,-19.9919 -12.84,-3.7109 -29.56,-5.5625 -50.17,-5.5625 -21.16,0 -39.78,3.9141 -55.86,11.7461"
         style="fill:#317a22;fill-opacity:1;fill-rule:nonzero;stroke:none"
         id="path20" /><path
         d="m 1402.68,124.496 h 7.83 c 5.78,0 10.08,1.301 12.92,3.914 2.84,2.61 4.49,6.528 4.94,11.75 l 7.25,82.856 c 0.43,4.949 -0.4,8.722 -2.51,11.339 -2.11,2.614 -5.91,3.915 -11.4,3.915 h -8.66 l 3.68,42.046 h 77.5 l 3.11,-21.019 c 5.59,7.418 12.93,12.777 22,16.074 9.1,3.301 18.58,4.945 28.47,4.945 h 23.91 l -3.68,-42.046 h -33.38 c -11.55,0 -20.09,-2.68 -25.64,-8.04 -5.57,-5.359 -8.83,-13.667 -9.82,-24.937 l -5.73,-65.543 c -0.46,-5.223 0.37,-9.07 2.49,-11.555 2.12,-2.468 5.93,-3.699 11.42,-3.699 h 7.85 l -3.68,-42.0507 H 1399 l 3.68,42.0507"
         style="fill:#317a22;fill-opacity:1;fill-rule:nonzero;stroke:none"
         id="path22" /><path
         d="m 1700.74,124.699 c 6.78,5.364 10.64,13.254 11.55,23.703 l 1.37,15.664 -37.35,-2.878 c -9.7,-0.825 -16.68,-3.04 -20.98,-6.602 -4.3,-3.574 -6.78,-9.211 -7.46,-16.895 -1.22,-14.027 6.95,-21.027 24.55,-21.027 12.09,0 21.52,2.676 28.32,8.035 z m -98.81,-33.8045 c -11.09,9.7535 -15.86,23.5625 -14.3,41.4335 1.78,20.332 9.83,35.52 24.18,45.547 14.35,10.031 34.64,15.879 60.9,17.52 l 43.94,2.89 2.02,23.082 c 0.75,8.52 -0.64,14.637 -4.15,18.348 -3.53,3.707 -9.69,5.566 -18.48,5.566 -9.63,0 -18.51,-2.617 -26.66,-7.832 l -1.3,-14.844 h -54.42 l 3.58,40.817 c 26.62,15.383 54.91,23.082 84.88,23.082 29.68,0 51.17,-6.465 64.46,-19.375 13.3,-12.922 18.99,-30.371 17.07,-52.359 l -6.71,-76.668 c -0.46,-5.227 0.24,-9.004 2.1,-11.34 1.85,-2.332 5.11,-3.504 9.79,-3.504 h 6.18 l -3.57,-40.8127 h -54.82 l -3.5,25.9767 c -10.93,-11.8243 -22.17,-20.1368 -33.72,-24.9415 -11.55,-4.8047 -26.67,-7.2149 -45.35,-7.2149 -23.65,0 -41.01,4.8828 -52.12,14.6289"
         style="fill:#317a22;fill-opacity:1;fill-rule:nonzero;stroke:none"
         id="path24" /><path
         d="m 1874.79,88.0117 c -16.09,7.8321 -28.27,19.4413 -36.53,34.8363 -8.28,15.39 -11.45,34.07 -9.52,56.062 3.05,34.899 15.28,61.559 36.67,79.973 21.39,18.406 49.42,27.621 84.03,27.621 18.97,0 34.65,-2.133 47.07,-6.387 12.4,-4.269 24.36,-11.207 35.88,-20.82 l -4.11,-46.996 h -54.41 l 2.02,23.086 c -4.15,2.742 -8.52,4.668 -13.1,5.769 -4.58,1.094 -10.43,1.653 -17.57,1.653 -14.03,0 -25.77,-5.36 -35.21,-16.082 -9.46,-10.715 -15.12,-26.661 -16.96,-47.817 -1.76,-20.066 2.1,-34.902 11.56,-44.519 9.46,-9.629 23.67,-14.426 42.64,-14.426 21.42,0 39.88,5.215 55.37,15.664 l 18.07,-33.809 c -13.77,-9.6208 -27.07,-16.2809 -39.89,-19.9919 -12.83,-3.7109 -29.54,-5.5625 -50.15,-5.5625 -21.18,0 -39.79,3.9141 -55.86,11.7461"
         style="fill:#317a22;fill-opacity:1;fill-rule:nonzero;stroke:none"
         id="path26" /><path
         d="m 2121.91,7.62109 c -14.55,5.09771 -26.35,12.30471 -35.42,21.65231 l 2.81,32.1485 h 54.41 l -1.08,-12.3633 c 3.5,-3.8477 7.67,-6.5273 12.49,-8.0391 4.81,-1.5117 10.93,-2.2656 18.36,-2.2656 21.97,0 34.09,12.7734 36.33,38.332 l 1.76,20.2032 c -7.78,-4.1211 -16.03,-7.2852 -24.74,-9.4805 -8.71,-2.207 -17.06,-3.3008 -25.02,-3.3008 -25.83,0 -45.7,6.3164 -59.56,18.9652 -13.87,12.636 -19.81,30.359 -17.82,53.172 l 5.82,66.371 c 0.88,10.168 -4.17,15.254 -15.16,15.254 h -9.48 l 3.67,42.046 h 91.52 l -11.03,-126.14 c -1.73,-19.785 7.29,-29.68 27.08,-29.68 21.16,0 32.68,10.715 34.56,32.149 l 5.8,66.371 c 0.46,5.222 -0.24,9.074 -2.08,11.543 -1.85,2.476 -5.52,3.711 -11.02,3.711 h -8.23 l 3.67,42.046 h 88.63 L 2271.66,91.5195 C 2269.23,63.7656 2259.04,41.5664 2241.1,24.9453 2223.16,8.31641 2200.04,0.00390625 2171.73,0.00390625 c -18.69,0 -35.29,2.53906375 -49.82,7.61718375"
         style="fill:#317a22;fill-opacity:1;fill-rule:nonzero;stroke:none"
         id="path28" /><path
         d="m 2462,76.2656 c -27.49,0 -50.39,5.8399 -68.75,17.5157 -18.35,11.6837 -31.49,27.9607 -39.42,48.8517 -7.93,20.879 -10.71,44.793 -8.36,71.73 3.7,42.317 17.2,76.399 40.49,102.235 23.27,25.824 55.94,38.75 97.99,38.75 36.28,0 64.07,-7.422 83.39,-22.27 l -3.25,-37.098 h -32.98 l 2.12,24.321 c -12.31,6.871 -29.46,10.308 -51.44,10.308 -30.25,0 -54.43,-10.238 -72.57,-30.711 -18.14,-20.476 -28.82,-48.992 -32.01,-85.535 -3.11,-35.453 3.12,-63.215 18.68,-83.273 15.57,-20.07 38.59,-30.09 69.11,-30.09 22.52,0 42.06,3.438 58.61,10.305 l 7.32,83.683 h -60.2 l 2.17,24.727 h 92.76 L 2555.24,100.59 c -13.68,-8.5236 -28.02,-14.7072 -43.05,-18.5548 -15.05,-3.8477 -31.78,-5.7696 -50.19,-5.7696"
         style="fill:#89b572;fill-opacity:1;fill-rule:nonzero;stroke:none"
         id="path30" /><path
         d="m 2704.11,82.4453 h -88.22 l 2.13,24.3277 h 11.95 c 6.04,0 10.28,1.161 12.67,3.497 2.4,2.332 3.84,6.113 4.29,11.343 L 2663.42,310 c 0.46,5.219 -0.32,8.996 -2.32,11.336 -1.99,2.332 -6.01,3.508 -12.05,3.508 h -11.95 l 2.13,24.316 h 138.92 c 26.11,0 45.96,-7.074 59.57,-21.23 13.59,-14.157 19.27,-34.004 17.04,-59.567 -2.24,-25.554 -11.58,-45.898 -28.01,-61.011 -16.44,-15.118 -37.57,-22.668 -63.41,-22.668 h -77.91 l -5.52,-63.071 c -0.46,-5.23 0.31,-9.011 2.31,-11.343 1.99,-2.336 6.01,-3.497 12.06,-3.497 h 11.96 l -2.13,-24.3277 m -6.41,242.3987 -10.14,-115.84 h 73.8 c 37.65,0 58.2,19.785 61.66,59.359 1.83,20.883 -1.37,35.512 -9.55,43.907 -8.21,8.378 -22.2,12.574 -41.98,12.574 h -73.79"
         style="fill:#89b572;fill-opacity:1;fill-rule:nonzero;stroke:none"
         id="path32" /><path
         d="m 2976.89,76.2656 c -17.6,0 -34.68,2.6172 -51.26,7.8321 -16.6,5.2148 -30.4,12.2265 -41.45,21.0233 l 3.21,36.692 h 33.39 l -2.2,-25.149 c 7.02,-4.676 16.16,-8.457 27.46,-11.34 11.28,-2.89 22.7,-4.324 34.23,-4.324 18.7,0 33.19,3.914 43.5,11.738 10.3,7.844 16.09,19.035 17.36,33.606 1.25,14.285 -2.65,25.418 -11.71,33.386 -9.05,7.969 -24.21,16.079 -45.48,24.329 -20.2,7.961 -36.17,15.382 -47.93,22.254 -11.76,6.871 -20.6,15.117 -26.49,24.738 -5.9,9.613 -8.23,21.293 -7.03,35.039 1.99,22.812 11.95,40.051 29.87,51.738 17.92,11.672 40.36,17.52 67.28,17.52 16.78,0 32.58,-2.414 47.4,-7.215 14.84,-4.813 27.01,-10.926 36.53,-18.348 l -3.14,-35.859 h -33.39 l 2.17,24.73 c -6,3.844 -13.71,6.801 -23.14,8.864 -9.44,2.058 -19.38,3.089 -29.82,3.089 -17.88,0 -32.33,-3.574 -43.41,-10.711 -11.06,-7.16 -17.26,-18.289 -18.58,-33.394 -0.89,-10.172 1.39,-18.617 6.85,-25.356 5.45,-6.734 11.95,-11.949 19.46,-15.664 7.5,-3.711 19.61,-9 36.33,-15.871 18.82,-7.699 33.54,-14.703 44.12,-21.023 10.57,-6.324 18.86,-14.367 24.89,-24.113 6.02,-9.754 8.37,-22.196 7.04,-37.305 -1.83,-20.887 -11.22,-37.93 -28.17,-51.1212 -16.97,-13.1875 -39.6,-19.7852 -67.89,-19.7852"
         style="fill:#89b572;fill-opacity:1;fill-rule:nonzero;stroke:none"
         id="path34" /><path
         d="m 3474.05,82.7383 h -58.89 l 5.15,58.8867 h 58.89 l -5.15,-58.8867"
         style="fill:#317a22;fill-opacity:1;fill-rule:nonzero;stroke:none"
         id="path36" /><path
         d="m 3335.65,82.7383 h -58.88 l 5.16,58.8867 h 58.88 l -5.16,-58.8867"
         style="fill:#89b572;fill-opacity:1;fill-rule:nonzero;stroke:none"
         id="path38" /><path
         d="m 3197.27,82.7383 h -58.89 l 5.15,58.8867 h 58.89 l -5.15,-58.8867"
         style="fill:#cce0be;fill-opacity:1;fill-rule:nonzero;stroke:none"
         id="path40" /></g></g></svg>
